<?xml version="1.0" encoding="UTF-8" standalone="no"?>
<!-- Created with Inkscape (http://www.inkscape.org/) -->
<svg
   xmlns:svg="http://www.w3.org/2000/svg"
   xmlns="http://www.w3.org/2000/svg"
   version="1.0"
   width="350.09"
   height="112.48"
   id="svg2381">
  <defs
     id="defs2383" />
  <g
     transform="translate(12.587294,0.2745725)"
     id="layer1">
    <g
       transform="translate(-4,0)"
       id="g3608"
       style="fill:#033c71;fill-opacity:1">
      <path
         d="M 132.72462,38.685525 C 133.7806,38.68556 134.7406,39.069557 135.6046,39.837519 C 136.37259,40.605547 136.75659,41.565541 136.7566,42.717503 L 136.7566,59.133413 C 136.75659,60.477418 136.99658,61.58141 137.47659,62.445394 C 138.14858,63.693397 138.96457,64.509391 139.92458,64.893381 C 140.78856,65.181387 141.74855,65.325386 142.80456,65.325378 C 145.20453,65.325386 146.83652,64.605391 147.70054,63.16539 L 148.13253,62.445394 C 148.61251,61.389412 148.85251,60.285419 148.85253,59.133413 L 148.85253,42.717503 C 148.85251,41.181543 149.5245,40.029551 150.86852,39.261522 C 152.21248,38.493561 153.46048,38.493561 154.6125,39.261522 C 155.95646,40.029551 156.62846,41.181543 156.62849,42.717503 L 156.62849,59.133413 C 156.05246,65.757383 153.07648,70.077355 147.70054,72.093341 C 146.16452,72.669338 144.53253,72.957336 142.80456,72.957336 C 138.19658,72.957336 134.5966,71.229348 132.00462,67.773365 C 131.52462,67.197374 131.09262,66.573378 130.70863,65.901375 C 129.55663,63.693397 128.98064,61.437411 128.98064,59.133413 L 128.98064,42.717503 C 128.98064,40.989545 129.70063,39.789552 131.14063,39.117523 C 131.62062,38.829559 132.14862,38.68556 132.72462,38.685525 M 177.11687,72.957336 L 177.69287,72.957336 L 177.69287,72.957336 C 179.99684,72.861337 182.20482,72.093342 184.31683,70.653349 C 187.77279,68.349366 189.88477,64.557391 190.6528,59.277412 C 190.84477,58.221432 190.94076,57.06944 190.9408,55.821431 C 190.94076,49.773487 189.11678,45.213517 185.46883,42.141506 C 182.97282,39.933551 180.18883,38.829559 177.11687,38.829524 C 174.81287,39.117557 172.79688,39.597554 171.06891,40.269517 L 171.06891,29.469576 C 171.06889,28.317627 170.6849,27.405633 169.91691,26.733591 C 169.14891,25.869643 168.23691,25.437646 167.18093,25.437598 C 165.54893,25.437646 164.44494,26.205641 163.86895,27.741586 C 163.58094,28.221628 163.43694,28.797624 163.43695,29.469576 L 163.43695,57.261423 C 163.43694,64.077394 165.78893,68.829363 170.49291,71.517344 C 172.70088,72.669338 174.90887,73.149335 177.11687,72.957336 M 171.06891,57.261423 L 171.06891,52.509449 C 171.06889,50.205485 171.74089,48.621495 173.08489,47.757475 C 173.27688,47.661501 173.56488,47.517502 173.94889,47.325478 C 175.00487,46.749507 176.06086,46.461509 177.11687,46.461482 C 178.26885,46.653508 179.22884,46.989505 179.99686,47.469477 C 182.20482,48.909493 183.30881,51.693475 183.30884,55.821431 C 183.30881,59.949421 182.20482,62.781403 179.99686,64.317384 C 179.03684,64.989388 178.07685,65.373386 177.11687,65.469378 L 176.68487,65.469378 C 173.51688,65.469385 171.69289,63.645397 171.2129,59.997408 C 171.11689,59.133426 171.06889,58.221432 171.06891,57.261423 M 201.06799,38.685525 C 202.12397,38.68556 203.08397,39.069557 203.94797,39.837519 C 204.71596,40.605547 205.09995,41.565541 205.09996,42.717503 L 205.09996,59.133413 C 205.09995,60.477418 205.33995,61.58141 205.81996,62.445394 C 206.49194,63.693397 207.30794,64.509391 208.26795,64.893381 C 209.13193,65.181387 210.09192,65.325386 211.14793,65.325378 C 213.5479,65.325386 215.17989,64.605391 216.0439,63.16539 L 216.4759,62.445394 C 216.95588,61.389412 217.19587,60.285419 217.1959,59.133413 L 217.1959,42.717503 C 217.19587,41.181543 217.86787,40.029551 219.21189,39.261522 C 220.55585,38.493561 221.80384,38.493561 222.95587,39.261522 C 224.29983,40.029551 224.97182,41.181543 224.97186,42.717503 L 224.97186,59.133413 C 224.39583,65.757383 221.41985,70.077355 216.0439,72.093341 C 214.50789,72.669338 212.8759,72.957336 211.14793,72.957336 C 206.53994,72.957336 202.93997,71.229348 200.34799,67.773365 C 199.86799,67.197374 199.43599,66.573378 199.052,65.901375 C 197.9,63.693397 197.324,61.437411 197.32401,59.133413 L 197.32401,42.717503 C 197.324,40.989545 198.044,39.789552 199.484,39.117523 C 199.96399,38.829559 200.49198,38.68556 201.06799,38.685525 M 231.63632,52.797448 C 231.63632,49.43749 232.64431,46.509509 234.66031,44.013496 C 237.06029,40.941545 240.56426,39.405555 245.17225,39.405521 C 252.08419,40.07755 256.35616,43.19753 257.98818,48.76547 C 258.27615,50.013486 258.46815,51.357477 258.56418,52.797448 L 258.56418,69.213357 C 258.56415,70.749351 257.84415,71.853344 256.40419,72.525339 C 255.82816,72.813337 255.30017,72.957336 254.8202,72.957336 C 253.18818,72.957336 252.08419,72.189341 251.50822,70.653349 C 251.31619,70.173355 251.22019,69.693358 251.22022,69.213357 L 251.22022,52.797448 C 251.02819,49.245491 249.01221,47.277504 245.17225,46.89348 C 241.90825,46.893506 239.94027,48.429496 239.26828,51.501455 C 239.17227,51.981473 239.12427,52.41347 239.12428,52.797448 L 239.12428,69.213357 C 239.12427,70.749351 238.35628,71.853344 236.8203,72.525339 C 236.43629,72.813337 235.95629,72.957336 235.3803,72.957336 C 233.74831,72.957336 232.59631,72.189341 231.92432,70.653349 C 231.73232,70.173355 231.63632,69.693358 231.63632,69.213357 L 231.63632,52.797448 M 272.44546,25.1496 C 273.59744,25.149648 274.55744,25.533645 275.32545,26.301594 C 276.09343,27.069635 276.42942,27.981629 276.33344,29.037578 L 276.33344,38.973524 L 281.08541,38.973524 C 282.62138,38.973558 283.77338,39.645553 284.54139,40.989513 C 285.30937,42.141537 285.30937,43.389529 284.54139,44.733492 C 283.77338,46.077511 282.62138,46.701507 281.08541,46.605482 L 276.33344,46.605482 L 276.33344,61.581399 C 276.33343,63.021401 276.57342,63.981395 277.05344,64.461383 C 277.34142,64.845389 277.82142,65.085388 278.49343,65.181379 C 279.26141,65.469385 280.2214,65.421385 281.37341,65.03738 C 282.90938,64.557391 284.25337,64.893389 285.40539,66.045375 C 286.36536,67.005375 286.65336,68.253367 286.26939,69.789354 C 285.88536,71.229348 284.97337,72.141342 283.5334,72.525339 L 280.79742,72.957336 C 276.57342,73.245335 273.40544,72.093342 271.29347,69.501355 C 269.56547,67.485372 268.70148,64.845389 268.70148,61.581399 L 268.70148,46.605482 L 266.39749,46.605482 C 264.8615,46.701507 263.75751,46.077511 263.08551,44.733492 C 262.31752,43.389529 262.31752,42.141537 263.08551,40.989513 C 263.75751,39.645553 264.8615,38.973558 266.39749,38.973524 L 268.70148,38.973524 L 268.70148,29.037578 C 268.70148,27.501632 269.37347,26.30164 270.71747,25.437598 C 271.29346,25.245647 271.86945,25.149648 272.44546,25.1496 M 293.87998,38.685525 C 294.93597,38.68556 295.89596,39.069557 296.75997,39.837519 C 297.52795,40.605547 297.91195,41.565541 297.91196,42.717503 L 297.91196,59.133413 C 297.91195,60.477418 298.15195,61.58141 298.63196,62.445394 C 299.30394,63.693397 300.11994,64.509391 301.07994,64.893381 C 301.94392,65.181387 302.90392,65.325386 303.95993,65.325378 C 306.3599,65.325386 307.99188,64.605391 308.8559,63.16539 L 309.2879,62.445394 C 309.76787,61.389412 310.00787,60.285419 310.00789,59.133413 L 310.00789,42.717503 C 310.00787,41.181543 310.67987,40.029551 312.02388,39.261522 C 313.36785,38.493561 314.61584,38.493561 315.76786,39.261522 C 317.11183,40.029551 317.78382,41.181543 317.78385,42.717503 L 317.78385,59.133413 C 317.20782,65.757383 314.23184,70.077355 308.8559,72.093341 C 307.31989,72.669338 305.6879,72.957336 303.95993,72.957336 C 299.35194,72.957336 295.75196,71.229348 293.15999,67.773365 C 292.67998,67.197374 292.24799,66.573378 291.86399,65.901375 C 290.712,63.693397 290.136,61.437411 290.136,59.133413 L 290.136,42.717503 C 290.136,40.989545 290.856,39.789552 292.29599,39.117523 C 292.77598,38.829559 293.30398,38.68556 293.87998,38.685525"
         id="text2284"
         style="font-size:39.99980164px;font-style:normal;font-weight:normal;fill:#033c71;stroke:none;stroke-width:1px;stroke-linecap:butt;stroke-linejoin:miter;stroke-opacity:1;font-family:Ubuntu-Title" />
      <path
         d="M 98.383398,38.829522 C 99.631385,38.829557 100.63938,39.309554 101.40738,40.269515 L 109.18334,49.917461 L 116.9593,40.269515 C 117.91927,39.117555 119.11926,38.637558 120.55928,38.829522 C 121.99924,39.117555 123.00723,39.93355 123.58326,41.277509 C 124.06323,42.621532 123.82323,43.869524 122.86326,45.021488 L 114.07931,55.965428 L 122.86326,66.765369 C 123.82323,67.917367 124.06323,69.213359 123.58326,70.653347 C 123.00723,71.997341 121.99924,72.765336 120.55928,72.957334 C 119.11926,73.245333 117.91927,72.813335 116.9593,71.661342 L 109.18334,62.013395 L 101.40738,71.661342 C 100.44738,72.813335 99.247387,73.245333 97.807401,72.957334 C 96.367406,72.765336 95.359413,71.997341 94.783418,70.653347 C 94.303419,69.213359 94.543418,67.917367 95.503414,66.765369 L 104.28737,55.965428 L 95.503414,45.021488 C 94.447418,43.773525 94.25542,42.429533 94.927417,40.989511 C 95.599411,39.549552 96.751403,38.829557 98.383398,38.829522"
         id="text3378"
         style="font-size:39.99980164px;font-style:normal;font-weight:normal;fill:#033c71;stroke:none;stroke-width:1px;stroke-linecap:butt;stroke-linejoin:miter;stroke-opacity:1;font-family:Ubuntu-Title" />
    </g>
    <path
       d="M 48.170328,38.523239 C 56.951238,38.523239 64.234688,45.042968 65.440648,53.494696 L 77.521798,53.494696 C 76.972658,46.853448 74.219248,40.663667 69.616138,35.7806 C 66.667378,37.283437 63.041798,37.311894 59.962288,35.533716 C 56.880478,33.75477 55.092298,30.59835 54.920788,27.290416 C 52.732678,26.780498 50.472268,26.515156 48.170328,26.515156 C 43.762568,26.515156 39.502478,27.47731 35.629248,29.302403 L 41.676748,39.778423 C 43.684888,38.969322 45.876848,38.523239 48.170328,38.523239 z"
       id="path2111"
       style="fill:#639ad2;fill-opacity:1;stroke:none;stroke-opacity:1" />
    <path
       d="M 65.442188,58.439291 C 64.238528,66.894864 56.952768,73.418438 48.170328,73.418438 C 45.874538,73.418438 43.683348,72.971587 41.673668,72.162485 L 35.626178,82.638503 C 39.500178,84.465135 43.761028,85.427289 48.170328,85.427289 C 50.474578,85.427289 52.737288,85.162716 54.926938,84.651259 C 55.096148,81.340251 56.883548,78.179217 59.969218,76.397963 C 63.048718,74.619016 66.675838,74.648242 69.625368,76.151848 C 74.225398,71.268781 76.975728,65.079769 77.523338,58.44006 L 65.442188,58.44006 L 65.442188,58.439291 z"
       id="path2113"
       style="fill:#23507b;fill-opacity:1" />
    <circle
       cx="98.936996"
       cy="9.1700001"
       r="9.1680002"
       transform="matrix(0.769108,0,0,0.769108,-11.074807,19.723139)"
       id="circle2117"
       style="fill:#10518b;fill-opacity:1" />
    <circle
       cx="33.206001"
       cy="47.130001"
       r="9.1680002"
       transform="matrix(0.769108,0,0,0.769108,-11.074807,19.723139)"
       id="circle2107"
       style="fill:#4b9aeb;fill-opacity:1" />
    <path
       d="M 30.723108,55.971223 C 30.723108,50.412111 33.335768,45.452902 37.397428,42.25572 L 31.350698,31.782008 C 29.932468,32.772619 28.590378,33.894747 27.342111,35.14301 C 23.84267,38.64322 21.332301,42.868699 19.951753,47.479502 C 22.734385,49.281522 24.577168,52.410253 24.577168,55.971992 C 24.577168,59.533732 22.734385,62.662463 19.951753,64.463714 C 21.332301,69.076054 23.84267,73.300765 27.342111,76.799437 C 28.589608,78.048468 29.930928,79.169059 31.347628,80.15967 L 37.395898,69.684419 C 33.334228,66.486468 30.723108,61.528029 30.723108,55.971223 z"
       id="path2115"
       style="fill:#b4d1ea;fill-opacity:1" />
    <circle
       cx="98.945"
       cy="85.073997"
       r="9.1689997"
       transform="matrix(0.769108,0,0,0.769108,-11.074807,19.723139)"
       id="circle3484"
       style="fill:#83bef1;fill-opacity:1" />
    <path
       d="M 48.170328,38.523239 C 56.951238,38.523239 64.234688,45.042968 65.440648,53.494696 L 77.521798,53.494696 C 76.972658,46.853448 74.219248,40.663667 69.616138,35.7806 C 66.667378,37.283437 63.041798,37.311894 59.962288,35.533716 C 56.880478,33.75477 55.092298,30.59835 54.920788,27.290416 C 52.732678,26.780498 50.472268,26.515156 48.170328,26.515156 C 43.762568,26.515156 39.502478,27.47731 35.629248,29.302403 L 41.676748,39.778423 C 43.684888,38.969322 45.876848,38.523239 48.170328,38.523239 z"
       id="path3679"
       style="fill:#639ad2;fill-opacity:0;stroke:none;stroke-opacity:1" />
    <path
       d="M 30.723108,55.971223 C 30.723108,50.412111 33.335768,45.452902 37.397428,42.25572 L 31.350698,31.782008 C 29.932468,32.772619 28.590378,33.894747 27.342111,35.14301 C 23.84267,38.64322 21.332301,42.868699 19.951753,47.479502 C 22.734385,49.281522 24.577168,52.410253 24.577168,55.971992 C 24.577168,59.533732 22.734385,62.662463 19.951753,64.463714 C 21.332301,69.076054 23.84267,73.300765 27.342111,76.799437 C 28.589608,78.048468 29.930928,79.169059 31.347628,80.15967 L 37.395898,69.684419 C 33.334228,66.486468 30.723108,61.528029 30.723108,55.971223 z"
       id="path3691"
       style="fill:#b4d1ea;fill-opacity:0" />
    <path
       d="M 65.442188,58.439291 C 64.238528,66.894864 56.952768,73.418438 48.170328,73.418438 C 45.874538,73.418438 43.683348,72.971587 41.673668,72.162485 L 35.626178,82.638503 C 39.500178,84.465135 43.761028,85.427289 48.170328,85.427289 C 50.474578,85.427289 52.737288,85.162716 54.926938,84.651259 C 55.096148,81.340251 56.883548,78.179217 59.969218,76.397963 C 63.048718,74.619016 66.675838,74.648242 69.625368,76.151848 C 74.225398,71.268781 76.975728,65.079769 77.523338,58.44006 L 65.442188,58.44006 L 65.442188,58.439291 z"
       id="path3719"
       style="fill:#23507b;fill-opacity:0" />
    <g
       id="g3583">
      <path
         d="M 24.061618,45.222977 C 24.182455,45.202763 27.195524,46.793186 29.220781,47.342794 C 32.832196,48.265693 36.128715,51.043377 37.72206,52.638967 C 37.840199,52.775526 39.090573,51.702815 40.399121,51.780079 C 42.18652,51.888338 47.717183,53.4435 48.456125,52.38449 C 48.904214,51.762784 48.872098,51.000028 49.431138,50.687603 C 49.732108,50.603377 48.312384,48.006724 49.821276,47.17479 C 50.897132,46.637087 51.808803,49.64746 52.085062,49.984816 C 52.208817,50.13575 52.865338,50.172585 52.787627,49.828716 C 52.703401,49.455199 51.641465,46.566561 52.943724,46.081865 C 55.058825,45.244315 54.683962,49.777955 54.738985,49.906878 C 54.85601,50.181345 62.105337,50.392922 62.54489,53.653729 C 62.799141,55.448318 56.737069,57.767808 56.144115,58.18108 C 55.551386,58.594353 55.600792,59.255363 55.831913,59.664368 C 56.097621,60.107962 57.863686,61.605175 57.627398,62.318293 C 57.465011,62.730218 54.168945,61.220427 53.958491,61.537793 C 53.478511,62.144001 56.357938,63.661428 55.363614,64.738182 C 54.969432,64.996028 50.434216,62.839376 50.445673,62.864756 C 50.323939,62.911025 44.03726,64.013158 39.205118,62.552332 C 39.034868,62.504266 36.103784,65.383695 35.770472,65.284644 C 35.314749,65.117539 36.442263,62.780305 36.316933,62.318293 C 36.112094,62.060897 34.239119,63.363378 34.131308,62.708657 C 34.002385,61.848197 35.774963,60.859038 35.692533,60.288768 C 35.235463,57.049074 35.896698,55.157231 37.019494,53.575791 C 37.393915,52.993616 32.619046,49.387817 29.16216,47.964724 C 25.705498,46.54163 23.856105,45.335504 24.061618,45.222977 z"
         id="path14"
         style="fill:#0a2a49;fill-opacity:1;fill-rule:evenodd;stroke:#0a2a49;stroke-width:0.22460442pt;stroke-linecap:butt;stroke-linejoin:miter;stroke-opacity:1" />
      <path
         d="M 55.12719,56.055065 C 55.089224,55.922549 57.486208,54.472727 57.833223,54.80604 C 58.457844,55.032441 55.149197,56.223293 55.12719,56.055065 z"
         id="path7"
         style="fill:#ffffff;fill-opacity:1;fill-rule:evenodd;stroke:#0a2a49;stroke-width:0.13476264pt;stroke-linecap:butt;stroke-linejoin:miter;stroke-opacity:1" />
      <path
         d="M 56.271995,57.373493 C 56.060868,57.245917 57.706995,55.326448 58.110829,55.534657 C 58.700414,56.120425 56.244372,57.419087 56.271995,57.373493 z"
         id="path8"
         style="fill:#ffffff;fill-opacity:1;fill-rule:evenodd;stroke:#0a2a49;stroke-width:0.13476264pt;stroke-linecap:butt;stroke-linejoin:miter;stroke-opacity:1" />
      <path
         d="M 62.759692,48.49196 C 62.559572,48.326427 60.990258,50.802466 61.337271,51.059413 C 61.545928,51.215514 62.849085,48.58023 62.759692,48.49196 z"
         id="path13"
         style="fill:#0a2a49;fill-opacity:1;fill-rule:evenodd;stroke:#0a2a49;stroke-width:0.13476264pt;stroke-linecap:butt;stroke-linejoin:miter;stroke-opacity:1" />
      <ellipse
         cx="288.86475"
         cy="374.58655"
         rx="3.012037"
         ry="3.398196"
         transform="matrix(0.2078264,0,0,0.2097329,-4.371806,-26.527264)"
         id="ellipse17"
         style="fill:#ffffff;fill-opacity:1;fill-rule:evenodd;stroke:#0a2a49;stroke-width:0.6pt;stroke-linecap:butt;stroke-linejoin:miter;stroke-opacity:1" />
      <path
         d="M 60.955646,48.14503 C 60.856601,48.030032 60.331025,50.698332 60.574044,50.816474 C 60.7827,50.972575 61.146114,48.283835 60.955646,48.14503 z"
         id="path18"
         style="fill:#0a2a49;fill-opacity:1;fill-rule:evenodd;stroke:#0a2a49;stroke-width:0.13476264pt;stroke-linecap:butt;stroke-linejoin:miter;stroke-opacity:1" />
      <path
         d="M 54.25687,51.756136 C 53.634487,52.196137 54.598493,54.686101 56.183974,53.232237 C 54.938318,53.268847 54.522794,52.904089 54.25687,51.756136 z"
         id="path21"
         style="fill:#ffffff;fill-opacity:1;fill-rule:evenodd;stroke:#0a2a49;stroke-width:0.13476264pt;stroke-linecap:butt;stroke-linejoin:miter;stroke-opacity:1" />
    </g>
  </g>
</svg>
