/* XPM */
static char * switch6_xpm[] = {
"32 32 16 1",
" 	c None",
".	c #C90016",
"+	c #FF630A",
"@	c #FF6309",
"#	c #FF6308",
"$	c #FF6209",
"%	c #FFB515",
"&	c #FFB615",
"*	c #FF640A",
"=	c #FFB415",
"-	c #FFB514",
";	c #C90015",
">	c #CA0016",
",	c #C80017",
"'	c #C80016",
")	c #C90017",
"                        ...     ",
"                       .....    ",
"                       .....    ",
"               ++@+## ......    ",
"             @@@@@@@@  .....    ",
"             $@@@@@@@+  ...     ",
"         %%   @@@@@@@@@         ",
"        &%%%  @@@@@@@@@@$*@$    ",
"       =%%%%   @@  @@@@@@@@@    ",
"       %%%%%&         @@@@@@@   ",
"      %%%%%%%          @@@@@@#  ",
"      %%%%%%            @@@@@@  ",
"      %%%%%              @@@@@  ",
"  @@@  %%%-              @@@@@$ ",
" @@@@@ %%%-               @@@@@ ",
"@@@@@@ &%%                      ",
"@@@@@@ &%%                      ",
" @@@@@ %%%-               ....; ",
"  @@@  %%%-              .....> ",
"      %%%%%              .....  ",
"      %%%%%%            ,.....  ",
"      %%%%%%%          ......'  ",
"       %%%%%&         .......   ",
"       =%%%%   .)  )........    ",
"        &%%%  .........)..>.    ",
"         %%   .........         ",
"             ;.......>  %%%     ",
"             ........  %%%%%    ",
"               .;...) %%%%%%    ",
"                       %%%%%    ",
"                       %%%%%    ",
"                        %%%     "};
