<?xml version="1.0" encoding="UTF-8" standalone="no"?>
<!-- Generator: Adobe Illustrator 15.1.0, SVG Export Plug-In . SVG Version: 6.00 Build 0)  -->

<svg
   xmlns:dc="http://purl.org/dc/elements/1.1/"
   xmlns:cc="http://creativecommons.org/ns#"
   xmlns:rdf="http://www.w3.org/1999/02/22-rdf-syntax-ns#"
   xmlns:svg="http://www.w3.org/2000/svg"
   xmlns="http://www.w3.org/2000/svg"
   xmlns:sodipodi="http://sodipodi.sourceforge.net/DTD/sodipodi-0.dtd"
   xmlns:inkscape="http://www.inkscape.org/namespaces/inkscape"
   version="1.1"
   id="Layer_1"
   x="0px"
   y="0px"
   width="141.732px"
   height="141.732px"
   viewBox="68.866 69.866 141.732 141.732"
   enable-background="new 68.866 69.866 141.732 141.732"
   xml:space="preserve"
   inkscape:version="0.48.4 r9939"
   sodipodi:docname="pictogram-add-orange-hex.svg"><metadata
     id="metadata3190"><rdf:RDF><cc:Work
         rdf:about=""><dc:format>image/svg+xml</dc:format><dc:type
           rdf:resource="http://purl.org/dc/dcmitype/StillImage" /><dc:title></dc:title></cc:Work></rdf:RDF></metadata><defs
     id="defs3188" /><sodipodi:namedview
     pagecolor="#ffffff"
     bordercolor="#666666"
     borderopacity="1"
     objecttolerance="10"
     gridtolerance="10"
     guidetolerance="10"
     inkscape:pageopacity="0"
     inkscape:pageshadow="2"
     inkscape:window-width="1366"
     inkscape:window-height="744"
     id="namedview3186"
     showgrid="false"
     inkscape:zoom="1.6651145"
     inkscape:cx="70.865997"
     inkscape:cy="70.865997"
     inkscape:window-x="0"
     inkscape:window-y="24"
     inkscape:window-maximized="1"
     inkscape:current-layer="Layer_1" /><path
     fill="#DD4814"
     d="M139.731,197.426c-31.26,0-56.692-25.433-56.692-56.694c0-31.26,25.432-56.693,56.692-56.693  c31.261,0,56.695,25.433,56.695,56.693C196.426,171.993,170.992,197.426,139.731,197.426L139.731,197.426z M139.731,98.212  c-23.445,0-42.519,19.075-42.519,42.52c0,23.446,19.073,42.52,42.519,42.52c23.447,0,42.521-19.074,42.521-42.52  C182.252,117.287,163.178,98.212,139.731,98.212L139.731,98.212z M160.912,133.65h-14.119v-14.173c0-3.914-3.173-7.087-7.087-7.087  s-7.087,3.173-7.087,7.087v14.173h-14.227c-3.914,0-7.087,3.173-7.087,7.087c0,3.916,3.173,7.087,7.087,7.087h14.227v14.172  c0,3.914,3.173,7.087,7.087,7.087c3.915,0,7.087-3.173,7.087-7.087v-14.172h14.119c3.914,0,7.087-3.174,7.087-7.087  S164.826,133.65,160.912,133.65z"
     id="path3184" /><path
     style="fill:#008000"
     d="M 68.041206,98.092508 C 64.698849,96.374805 64.096585,94.613681 63.870614,85.896983 l -0.209064,-8.064498 -7.108691,0 c -3.909781,0 -7.869478,-0.288254 -8.799326,-0.640564 -4.194871,-1.589393 -5.894764,-5.386634 -4.102348,-9.16387 1.569468,-3.307409 3.754448,-4.00843 12.493691,-4.00843 l 7.498216,0 0.232527,-8.467021 0.232526,-8.467021 2.229044,-2.042767 c 2.542712,-2.330221 5.467102,-2.714867 8.003822,-1.052744 2.744843,1.79849 3.25125,3.697562 3.25125,12.192459 l 0,7.837094 7.526281,0 c 4.996741,0 8.184995,0.275229 9.486192,0.818904 4.253697,1.777308 5.431156,7.273599 2.241516,10.463238 -2.194524,2.194524 -3.844828,2.530722 -12.422627,2.530722 l -6.831362,0 0,7.837095 c 0,8.73979 -0.577368,10.716843 -3.583697,12.271476 -2.124739,1.098746 -4.029996,1.147101 -5.967358,0.151452 z"
     id="path3192"
     inkscape:connector-curvature="0"
     transform="translate(68.866,69.866)" /><path
     style="fill:#008000"
     d="m 62.878559,126.73316 c -0.660616,-0.15666 -3.074853,-0.71351 -5.364971,-1.23743 -9.55132,-2.18509 -18.946285,-7.51124 -26.40372,-14.96868 -5.099943,-5.09994 -7.85017,-9.03662 -11.181325,-16.004974 -4.034062,-8.438741 -5.019621,-13.141342 -5.008124,-23.896302 0.009,-8.381002 0.172418,-9.847315 1.640236,-14.713703 5.418993,-17.966075 18.889646,-32.41802 35.564167,-38.154896 9.020466,-3.103496 20.983554,-3.920048 30.036284,-2.050155 19.861984,4.102605 36.616234,19.364851 42.498474,38.713888 7.94146,26.122628 -3.56134,53.378112 -28.003621,66.353552 -7.959807,4.22555 -14.201371,5.78361 -24.168452,6.0331 -4.624306,0.11575 -8.948333,0.0823 -9.608948,-0.0744 l 0,0 z M 81.179024,112.29288 C 100.60318,107.92673 114.73744,88.613035 113.42112,68.235832 112.3819,52.14833 103.36269,38.991042 88.702609,32.1763 86.060148,30.947952 82.563319,29.621005 80.931882,29.22753 62.188675,24.706993 42.014933,33.839669 33.164119,50.852053 c -3.375487,6.488112 -4.81772,12.497467 -4.81772,20.074 0,16.347687 8.561127,30.514327 22.857121,37.823137 9.467157,4.84007 19.127448,5.9821 29.975504,3.54369 l 0,0 z"
     id="path3194"
     inkscape:connector-curvature="0"
     transform="translate(68.866,69.866)" /></svg>