<?xml version="1.0" encoding="UTF-8" standalone="no"?>
<!-- Generator: Adobe Illustrator 15.1.0, SVG Export Plug-In . SVG Version: 6.00 Build 0)  -->

<svg
   xmlns:dc="http://purl.org/dc/elements/1.1/"
   xmlns:cc="http://creativecommons.org/ns#"
   xmlns:rdf="http://www.w3.org/1999/02/22-rdf-syntax-ns#"
   xmlns:svg="http://www.w3.org/2000/svg"
   xmlns="http://www.w3.org/2000/svg"
   xmlns:sodipodi="http://sodipodi.sourceforge.net/DTD/sodipodi-0.dtd"
   xmlns:inkscape="http://www.inkscape.org/namespaces/inkscape"
   version="1.1"
   id="Layer_1"
   x="0px"
   y="0px"
   width="141.732px"
   height="141.732px"
   viewBox="70.866 70.866 141.732 141.732"
   enable-background="new 70.866 70.866 141.732 141.732"
   xml:space="preserve"
   inkscape:version="0.48.4 r9939"
   sodipodi:docname="pictogram-delete-orange-hex.svg"><metadata
     id="metadata3089"><rdf:RDF><cc:Work
         rdf:about=""><dc:format>image/svg+xml</dc:format><dc:type
           rdf:resource="http://purl.org/dc/dcmitype/StillImage" /><dc:title></dc:title></cc:Work></rdf:RDF></metadata><defs
     id="defs3087" /><sodipodi:namedview
     pagecolor="#ffffff"
     bordercolor="#666666"
     borderopacity="1"
     objecttolerance="10"
     gridtolerance="10"
     guidetolerance="10"
     inkscape:pageopacity="0"
     inkscape:pageshadow="2"
     inkscape:window-width="1366"
     inkscape:window-height="744"
     id="namedview3085"
     showgrid="false"
     inkscape:zoom="4.2545087"
     inkscape:cx="70.865997"
     inkscape:cy="70.865997"
     inkscape:window-x="0"
     inkscape:window-y="24"
     inkscape:window-maximized="1"
     inkscape:current-layer="Layer_1" /><path
     fill="#DD4814"
     d="M141.733,198.425c-15.143,0-29.38-5.897-40.088-16.604c-10.708-10.709-16.605-24.945-16.605-40.088  c0-15.142,5.897-29.378,16.605-40.086s24.945-16.605,40.088-16.605c15.142,0,29.379,5.896,40.087,16.604  s16.604,24.946,16.604,40.089s-5.897,29.381-16.604,40.088C171.112,192.527,156.875,198.425,141.733,198.425L141.733,198.425z   M141.733,99.213c-11.357,0-22.035,4.423-30.067,12.454c-8.031,8.031-12.454,18.708-12.454,30.064  c0,11.357,4.423,22.035,12.454,30.065c8.032,8.031,18.709,12.455,30.067,12.455c11.356,0,22.035-4.423,30.064-12.453  c8.031-8.03,12.455-18.709,12.455-30.066s-4.424-22.036-12.455-30.067C163.768,103.636,153.09,99.213,141.733,99.213L141.733,99.213  z M151.703,141.79l10.021-10.022c2.768-2.768,2.768-7.254,0-10.021s-7.256-2.767-10.021,0l-10.022,10.021l-10.021-10.021  c-2.767-2.767-7.255-2.767-10.022,0c-2.768,2.768-2.768,7.254,0,10.021l10.022,10.022l-10.023,10.022  c-2.768,2.769-2.768,7.254,0,10.021c1.383,1.384,3.197,2.076,5.011,2.076c1.813,0,3.627-0.692,5.011-2.076l10.023-10.023  l10.022,10.021c1.383,1.384,3.196,2.076,5.011,2.076s3.627-0.692,5.012-2.076c2.768-2.768,2.768-7.254,0-10.021L151.703,141.79z"
     id="path3083" /><path
     style="fill:#ff0000"
     d="m 66.094589,127.2567 c -6.876146,-0.60006 -13.639322,-2.49058 -19.978806,-5.58469 -5.760016,-2.8113 -9.94351,-5.76385 -14.658006,-10.34508 C 21.558616,101.70761 15.80314,89.573445 14.507227,75.590397 13.196993,61.452821 17.728532,46.693794 26.84778,35.397742 35.691022,24.443583 48.392406,17.117973 62.333872,14.930897 c 3.297613,-0.517315 10.662606,-0.698371 14.116479,-0.34703 19.197013,1.952793 36.140769,13.557461 44.803689,30.685755 4.24625,8.39567 6.07412,16.063239 6.0795,25.502357 0.004,7.587119 -1.2224,14.286757 -3.80188,20.763465 -7.91405,19.871016 -26.183,33.632346 -47.312208,35.638536 -2.385714,0.22652 -7.955565,0.27203 -10.124863,0.0827 z M 77.49426,112.93018 c 9.047996,-1.40255 16.846119,-5.38126 23.40103,-11.93954 C 108.81051,93.071351 112.90078,83.746359 113.377,72.534815 113.96676,58.650157 107.80199,45.486634 96.767931,37.069801 91.949417,33.394214 86.91507,30.949162 81.254976,29.535559 77.7704,28.66529 75.112469,28.364261 70.913006,28.364261 c -5.667291,0 -10.100221,0.770777 -15.042865,2.615583 -10.397435,3.880767 -19.247083,12.137986 -23.735035,22.146126 -2.69532,6.010569 -3.785853,11.124838 -3.789341,17.770872 -0.0061,11.601434 4.292029,21.9701 12.51264,30.185168 9.559055,9.5526 23.130507,13.94165 36.635855,11.84817 l 0,0 z"
     id="path3091"
     inkscape:connector-curvature="0"
     transform="translate(70.866,70.866)" /><path
     style="fill:#ff0000"
     d="m 53.637216,92.553954 c -2.171315,-0.85133 -3.559516,-2.216804 -4.319935,-4.249205 -0.632207,-1.689725 -0.631148,-3.053086 0.0037,-4.772774 0.453387,-1.228131 1.035833,-1.898116 5.993641,-6.894449 3.020299,-3.043771 5.491453,-5.63602 5.491453,-5.760556 0,-0.124537 -2.387305,-2.605378 -5.305122,-5.512979 -5.821452,-5.801071 -6.433285,-6.636888 -6.619402,-9.042685 -0.376487,-4.866586 4.632108,-8.632119 9.221509,-6.932861 1.291392,0.478147 1.876405,0.985336 6.940152,6.016908 3.041436,3.02211 5.628046,5.494746 5.748024,5.494746 0.119977,0 2.708495,-2.470305 5.752266,-5.489566 6.171632,-6.12194 6.554348,-6.381314 9.412363,-6.378909 4.768469,0.004 8.041674,4.864075 6.331147,9.400505 -0.483647,1.282666 -1.032453,1.916122 -6.065436,7.000984 l -5.533675,5.590715 5.443618,5.45639 c 4.375262,4.385526 5.56063,5.7101 6.039835,6.749134 0.713861,1.547831 0.787886,3.361899 0.206898,5.070353 -0.555921,1.634746 -2.602263,3.647697 -4.271997,4.202295 -1.645102,0.546415 -3.792495,0.419888 -5.21252,-0.307126 C 82.232052,91.856106 79.820937,89.642097 76.3862,86.219319 L 70.92981,80.781925 65.339095,86.3156 c -5.024679,4.973414 -5.728442,5.585153 -6.95104,6.042132 -1.504064,0.562182 -3.596987,0.648627 -4.750839,0.196222 z"
     id="path3093"
     inkscape:connector-curvature="0"
     transform="translate(70.866,70.866)" /><path
     style="fill:#ff0000"
     d="m 63.391574,126.83611 c -6.53703,-0.96561 -11.845269,-2.63555 -17.719934,-5.57456 -5.802475,-2.90291 -9.644707,-5.69503 -14.490199,-10.52992 -9.393417,-9.37287 -14.562483,-19.926921 -16.347763,-33.378397 -0.531681,-4.006037 -0.360254,-11.857717 0.343829,-15.748 2.143861,-11.845506 7.551604,-22.315176 15.780257,-30.551395 7.006533,-7.012976 16.280147,-12.35398 25.665719,-14.781805 5.390458,-1.394383 6.762652,-1.544627 14.172001,-1.551712 7.403428,-0.0071 8.686385,0.132762 14.12576,1.539706 13.895814,3.594278 26.023966,12.445751 33.629446,24.543745 4.40924,7.013757 7.15946,14.510611 8.19147,22.329252 0.44213,3.349675 0.5086,11.446161 0.11963,14.572776 -0.90874,7.304691 -3.09404,14.084919 -6.51501,20.21385 -8.92385,15.98775 -24.082999,26.3589 -42.247061,28.90339 -3.132961,0.43887 -11.773503,0.44655 -14.708145,0.0131 l 0,0 z M 75.17767,113.30446 c 10.073319,-1.01669 19.166587,-5.43161 26.18775,-12.71456 6.37845,-6.616273 9.88156,-13.421661 11.53773,-22.41401 0.67185,-3.647862 0.61898,-11.782489 -0.0993,-15.27791 C 110.84381,53.359447 105.907,44.705054 99.099384,38.873596 92.089738,32.869072 83.903416,29.280418 75.312318,28.446016 72.321926,28.155576 67.601397,28.27636 64.35002,28.726507 49.924242,30.723728 36.899891,40.999604 31.397442,54.725243 c -2.375255,5.92498 -3.04374,9.418312 -3.048219,15.929214 -0.0083,12.042011 4.050166,21.954843 12.466261,30.449053 8.897086,8.97966 21.597667,13.48925 34.362186,12.20095 z"
     id="path3095"
     inkscape:connector-curvature="0"
     transform="translate(70.866,70.866)" /><path
     style="fill:#d40000"
     d="m 53.15176,92.186812 c -2.42355,-1.100774 -4.099319,-3.659965 -4.095436,-6.254445 0.0037,-2.461883 0.520162,-3.208801 6.44214,-9.316458 2.919189,-3.010719 5.306555,-5.583702 5.305256,-5.717743 -0.0013,-0.13404 -2.420843,-2.753395 -5.376765,-5.820788 -2.955921,-3.067394 -5.565987,-5.976073 -5.800146,-6.463731 -0.546426,-1.137984 -0.709845,-3.318987 -0.346046,-4.618348 0.722004,-2.578747 3.286494,-4.590196 6.109802,-4.792203 2.698725,-0.193092 3.323468,0.219749 9.666493,6.387796 3.002901,2.920064 5.576878,5.309207 5.71995,5.309207 0.143072,0 2.72355,-2.374863 5.734398,-5.277473 6.399799,-6.169734 7.081419,-6.622823 9.64053,-6.408276 2.779431,0.233017 4.504224,1.387676 5.69942,3.815459 0.684095,1.3896 0.738395,1.664794 0.636471,3.225719 -0.07371,1.128792 -0.29068,2.05627 -0.640904,2.739654 -0.32179,0.627897 -2.656267,3.18707 -5.951557,6.524404 l -5.422083,5.49126 5.514435,5.580402 c 6.206686,6.280935 6.549407,6.773342 6.549407,9.409931 0,3.723976 -2.91441,6.612864 -6.683329,6.624802 -2.582488,0.0082 -3.066852,-0.330503 -9.36003,-6.544824 l -5.583868,-5.513898 -5.504655,5.447108 c -6.287768,6.222035 -6.860481,6.614181 -9.652624,6.609318 -1.092768,-0.0019 -1.966214,-0.148619 -2.600859,-0.436873 z"
     id="path3097"
     inkscape:connector-curvature="0"
     transform="translate(70.866,70.866)" /><path
     style="fill:#d40000"
     d="m 64.566798,127.02201 c -2.028242,-0.21074 -7.347432,-1.34758 -9.83928,-2.10289 C 48.277363,122.96399 41.60129,119.5274 36.386947,115.47809 33.75624,113.43515 28.41724,108.09939 26.461455,105.5586 19.880947,97.009794 16.300648,88.354484 14.848879,77.485413 14.30017,73.377343 14.461968,65.558813 15.177507,61.605233 18.49242,43.289297 29.741474,28.23857 46.081321,20.257326 c 5.277963,-2.578036 10.074858,-4.154783 15.520944,-5.101759 2.910084,-0.506012 12.759069,-0.713932 15.834185,-0.334273 16.653327,2.056047 31.2807,11.119298 40.58479,25.146694 4.18069,6.303054 7.33093,14.288782 8.48918,21.519723 0.83656,5.222556 0.83603,13.606972 -0.001,18.744888 -2.09054,12.829752 -8.89609,24.801791 -19.04679,33.506331 -6.74095,5.78057 -15.5619,10.21398 -24.138263,12.13188 -4.76663,1.06595 -7.178876,1.30597 -12.763765,1.26999 -2.844042,-0.0183 -5.54118,-0.0718 -5.993641,-0.11879 l 7e-6,0 z m 10.375828,-13.71812 c 8.818324,-0.89205 16.39248,-4.05708 23.125673,-9.66358 7.429731,-6.186488 12.611281,-14.69046 14.450661,-23.716435 2.3706,-11.632763 0.1668,-23.235651 -6.22356,-32.766618 -3.27426,-4.883433 -6.674157,-8.265645 -11.728034,-11.667016 -8.115435,-5.461867 -16.8793,-7.775342 -26.758542,-7.063689 -5.879819,0.423553 -10.118313,1.517266 -15.151594,3.909761 -7.345572,3.491605 -13.285784,8.719965 -17.765246,15.636324 -2.25003,3.474082 -4.331208,8.221292 -5.335605,12.170625 -1.617975,6.361943 -1.608892,14.796621 0.02296,21.323254 2.540025,10.158894 9.017704,19.217374 17.946714,25.096964 7.991007,5.26192 17.914503,7.70163 27.416574,6.74041 l 0,0 z"
     id="path3099"
     inkscape:connector-curvature="0"
     transform="translate(70.866,70.866)" /></svg>